<?xml version="1.0"?>
<svg width="159" height="52" xmlns="http://www.w3.org/2000/svg" xmlns:svg="http://www.w3.org/2000/svg">
 <defs>
  <filter color-interpolation-filters="sRGB" filterUnits="userSpaceOnUse" height="22.79" id="filter0_dddddd_2973_971" width="27.25" x="8.11" y="16.48">
   <feFlood flood-opacity="0" result="BackgroundImageFix"/>
   <feColorMatrix in="SourceAlpha" result="hardAlpha" type="matrix" values="0 0 0 0 0 0 0 0 0 0 0 0 0 0 0 0 0 0 127 0"/>
   <feOffset dy="0.12"/>
   <feGaussianBlur stdDeviation="0.05"/>
   <feColorMatrix type="matrix" values="0 0 0 0 0.0509804 0 0 0 0 0.121569 0 0 0 0 0.396078 0 0 0 0.189957 0"/>
   <feBlend in2="BackgroundImageFix"/>
   <feColorMatrix in="SourceAlpha" result="hardAlpha" type="matrix" values="0 0 0 0 0 0 0 0 0 0 0 0 0 0 0 0 0 0 127 0"/>
   <feOffset dy="0.24"/>
   <feGaussianBlur stdDeviation="0.1"/>
   <feColorMatrix type="matrix" values="0 0 0 0 0.0509804 0 0 0 0 0.121569 0 0 0 0 0.396078 0 0 0 0.368551 0"/>
   <feBlend in2="effect1_dropShadow_2973_971"/>
   <feColorMatrix in="SourceAlpha" result="hardAlpha" type="matrix" values="0 0 0 0 0 0 0 0 0 0 0 0 0 0 0 0 0 0 127 0"/>
   <feOffset dy="0.37"/>
   <feGaussianBlur stdDeviation="0.17"/>
   <feColorMatrix type="matrix" values="0 0 0 0 0.0509804 0 0 0 0 0.121569 0 0 0 0 0.396078 0 0 0 0.3 0"/>
   <feBlend in2="effect2_dropShadow_2973_971"/>
   <feColorMatrix in="SourceAlpha" result="hardAlpha" type="matrix" values="0 0 0 0 0 0 0 0 0 0 0 0 0 0 0 0 0 0 127 0"/>
   <feOffset dy="0.55"/>
   <feGaussianBlur stdDeviation="0.55"/>
   <feColorMatrix type="matrix" values="0 0 0 0 0.0509804 0 0 0 0 0.121569 0 0 0 0 0.396078 0 0 0 0.3 0"/>
   <feBlend in2="effect3_dropShadow_2973_971"/>
   <feColorMatrix in="SourceAlpha" result="hardAlpha" type="matrix" values="0 0 0 0 0 0 0 0 0 0 0 0 0 0 0 0 0 0 127 0"/>
   <feOffset dy="0.85"/>
   <feGaussianBlur stdDeviation="1.02"/>
   <feColorMatrix type="matrix" values="0 0 0 0 0.0509804 0 0 0 0 0.121569 0 0 0 0 0.396078 0 0 0 0.29 0"/>
   <feBlend in2="effect4_dropShadow_2973_971"/>
   <feColorMatrix in="SourceAlpha" result="hardAlpha" type="matrix" values="0 0 0 0 0 0 0 0 0 0 0 0 0 0 0 0 0 0 127 0"/>
   <feOffset dy="2.25"/>
   <feGaussianBlur stdDeviation="1.8"/>
   <feColorMatrix type="matrix" values="0 0 0 0 0.0509804 0 0 0 0 0.121569 0 0 0 0 0.396078 0 0 0 0.45 0"/>
   <feBlend in2="effect5_dropShadow_2973_971"/>
   <feBlend in="SourceGraphic" in2="effect6_dropShadow_2973_971"/>
  </filter>
  <filter color-interpolation-filters="sRGB" filterUnits="userSpaceOnUse" height="22.53" id="filter1_dddddd_2973_971" width="13.87" x="29.35" y="16.63">
   <feFlood flood-opacity="0" result="BackgroundImageFix"/>
   <feColorMatrix in="SourceAlpha" result="hardAlpha" type="matrix" values="0 0 0 0 0 0 0 0 0 0 0 0 0 0 0 0 0 0 127 0"/>
   <feOffset dy="0.12"/>
   <feGaussianBlur stdDeviation="0.05"/>
   <feColorMatrix type="matrix" values="0 0 0 0 0.0509804 0 0 0 0 0.121569 0 0 0 0 0.396078 0 0 0 0.189957 0"/>
   <feBlend in2="BackgroundImageFix"/>
   <feColorMatrix in="SourceAlpha" result="hardAlpha" type="matrix" values="0 0 0 0 0 0 0 0 0 0 0 0 0 0 0 0 0 0 127 0"/>
   <feOffset dy="0.24"/>
   <feGaussianBlur stdDeviation="0.1"/>
   <feColorMatrix type="matrix" values="0 0 0 0 0.0509804 0 0 0 0 0.121569 0 0 0 0 0.396078 0 0 0 0.368551 0"/>
   <feBlend in2="effect1_dropShadow_2973_971"/>
   <feColorMatrix in="SourceAlpha" result="hardAlpha" type="matrix" values="0 0 0 0 0 0 0 0 0 0 0 0 0 0 0 0 0 0 127 0"/>
   <feOffset dy="0.37"/>
   <feGaussianBlur stdDeviation="0.17"/>
   <feColorMatrix type="matrix" values="0 0 0 0 0.0509804 0 0 0 0 0.121569 0 0 0 0 0.396078 0 0 0 0.3 0"/>
   <feBlend in2="effect2_dropShadow_2973_971"/>
   <feColorMatrix in="SourceAlpha" result="hardAlpha" type="matrix" values="0 0 0 0 0 0 0 0 0 0 0 0 0 0 0 0 0 0 127 0"/>
   <feOffset dy="0.55"/>
   <feGaussianBlur stdDeviation="0.55"/>
   <feColorMatrix type="matrix" values="0 0 0 0 0.0509804 0 0 0 0 0.121569 0 0 0 0 0.396078 0 0 0 0.3 0"/>
   <feBlend in2="effect3_dropShadow_2973_971"/>
   <feColorMatrix in="SourceAlpha" result="hardAlpha" type="matrix" values="0 0 0 0 0 0 0 0 0 0 0 0 0 0 0 0 0 0 127 0"/>
   <feOffset dy="0.85"/>
   <feGaussianBlur stdDeviation="1.02"/>
   <feColorMatrix type="matrix" values="0 0 0 0 0.0509804 0 0 0 0 0.121569 0 0 0 0 0.396078 0 0 0 0.29 0"/>
   <feBlend in2="effect4_dropShadow_2973_971"/>
   <feColorMatrix in="SourceAlpha" result="hardAlpha" type="matrix" values="0 0 0 0 0 0 0 0 0 0 0 0 0 0 0 0 0 0 127 0"/>
   <feOffset dy="2.25"/>
   <feGaussianBlur stdDeviation="1.8"/>
   <feColorMatrix type="matrix" values="0 0 0 0 0.0509804 0 0 0 0 0.121569 0 0 0 0 0.396078 0 0 0 0.45 0"/>
   <feBlend in2="effect5_dropShadow_2973_971"/>
   <feBlend in="SourceGraphic" in2="effect6_dropShadow_2973_971"/>
  </filter>
  <linearGradient id="paint0_linear_2973_971" x1="0.5" x2="0.5" y1="0" y2="1">
   <stop stop-color="#A4C1FF"/>
   <stop offset="1" stop-color="#0E78F9"/>
  </linearGradient>
  <linearGradient id="paint1_linear_2973_971" x1="0.5" x2="0.5" y1="0" y2="1">
   <stop stop-color="white"/>
   <stop offset="1" stop-color="#C5D4F7"/>
  </linearGradient>
  <linearGradient id="paint2_linear_2973_971" x1="0.5" x2="0.5" y1="-0.02" y2="1.02">
   <stop stop-color="white"/>
   <stop offset="1" stop-color="#637ACA"/>
  </linearGradient>
  <linearGradient id="paint3_linear_2973_971" x1="0.5" x2="0.5" y1="0" y2="1">
   <stop stop-color="white"/>
   <stop offset="1" stop-color="#C5D4F7"/>
  </linearGradient>
  <linearGradient id="paint4_linear_2973_971" x1="0.5" x2="0.5" y1="-0.02" y2="1.02">
   <stop stop-color="white"/>
   <stop offset="1" stop-color="#637ACA"/>
  </linearGradient>
 </defs>
 <g class="layer">
  <title>Layer 1</title>
  <path d="m19.67,5.02c0.77,0 1.53,0.01 2.26,0.01l7.43,0c0.73,0 1.5,-0.01 2.26,-0.01c2.06,-0.01 4.13,-0.03 5.52,0.06c5.09,0.33 8.59,3.41 9.04,8.64c0.11,1.88 0.11,4.15 0.1,6.82l0,0c0,0.46 0,0.93 0,1.41l0,7.43c0,0.48 0,0.95 0,1.41c0.01,2.68 0.01,4.94 -0.1,6.82c-0.45,5.24 -3.95,8.32 -9.04,8.64c-1.39,0.09 -3.46,0.08 -5.52,0.06c-0.76,0 -1.53,-0.01 -2.26,-0.01l-7.43,0c-0.73,0 -1.49,0.01 -2.26,0.01c-2.06,0.02 -4.12,0.03 -5.52,-0.06c-5.08,-0.32 -8.59,-3.4 -9.04,-8.64c-0.11,-1.88 -0.1,-4.14 -0.1,-6.82l0,0c0,-0.46 0,-0.93 0,-1.41l0,-7.43c0,-0.48 0,-0.95 0,-1.41l0,0c0,-2.67 -0.01,-4.94 0.1,-6.82c0.45,-5.23 3.96,-8.31 9.04,-8.64c1.4,-0.09 3.46,-0.07 5.52,-0.06z" fill="url(#paint0_linear_2973_971)" id="svg_1"/>
  <g filter="url(#filter0_dddddd_2973_971)" id="svg_2">
   <path d="m11.72,19.73c0,-1.05 0.85,-1.9 1.9,-1.9l13.33,0c2.65,0 4.81,2.15 4.81,4.81l0,8.87c0,1.05 -0.86,1.9 -1.91,1.9l-13.32,0c-2.66,0 -4.81,-2.15 -4.81,-4.81l0,-8.87z" fill="url(#paint1_linear_2973_971)" id="svg_3"/>
   <path d="m13.62,18.06l13.33,0c2.53,0 4.58,2.05 4.58,4.58l0,8.87c0,0.92 -0.75,1.67 -1.68,1.67l-13.32,0c-2.53,0 -4.58,-2.05 -4.58,-4.58l0,-8.87c0,-0.92 0.75,-1.67 1.67,-1.67z" id="svg_4" stroke="url(#paint2_linear_2973_971)" stroke-width="0.45"/>
  </g>
  <g filter="url(#filter1_dddddd_2973_971)" id="svg_5">
   <path d="m32.96,23.35c0,-0.65 0.28,-1.27 0.76,-1.7l3.82,-3.35c0.81,-0.72 2.08,-0.14 2.08,0.94l0,12.8c0,1.07 -1.25,1.65 -2.06,0.96l-3.51,-2.98c-0.69,-0.59 -1.09,-1.46 -1.09,-2.37l0,-4.3z" fill="url(#paint3_linear_2973_971)" id="svg_6"/>
   <path d="m33.87,21.82l3.82,-3.35c0.66,-0.59 1.7,-0.12 1.7,0.77l0,12.8c0,0.88 -1.02,1.35 -1.69,0.78l-3.5,-2.97c-0.65,-0.55 -1.02,-1.35 -1.02,-2.2l0,-4.3c0,-0.59 0.25,-1.14 0.69,-1.53z" id="svg_7" stroke="url(#paint4_linear_2973_971)" stroke-width="0.45"/>
  </g>
  <text fill="#007fff" font-family="Serif" font-size="24" id="svg_10" stroke-width="0" text-anchor="middle" x="101.5" xml:space="preserve" y="34.4">Sangama</text>
 </g>
</svg>